<?xml version="1.0" encoding="utf-8"?>
<!-- Generator: Adobe Illustrator 27.1.0, SVG Export Plug-In . SVG Version: 6.00 Build 0)  -->
<svg version="1.1" id="Capa_1" xmlns="http://www.w3.org/2000/svg" xmlns:xlink="http://www.w3.org/1999/xlink" x="0px" y="0px"
	 viewBox="0 0 291.78 486.3" style="enable-background:new 0 0 291.78 486.3;" xml:space="preserve">
<style type="text/css">
	.st0{fill:#002B2A;}
	.st1{fill:#E08119;}
	.st2{fill:none;stroke:#002B2A;stroke-width:7.6565;stroke-miterlimit:10;}
	.st3{fill:none;stroke:#002B2A;stroke-width:5.7375;stroke-miterlimit:10;}
	.st4{font-family:'NDLOGOS';}
	.st5{font-size:45.0885px;}
	.st6{fill:none;}
</style>
<g>
	<path class="st0" d="M88.94,424.68h17V165.46c-5.67,9.35-11.33,18.71-17,28.06C88.94,270.57,88.94,347.63,88.94,424.68z"/>
	<path class="st1" d="M201.79,182.68c0,80.61,0,161.23,0,241.84h-17.1c4.52-40.44,7.17-87.66,5.23-140.22
		c-1.88-50.93-7.68-96.49-14.83-135.56"/>
	<path class="st1" d="M108.19,93.2c-0.04-12.69-0.08-25.37-0.11-38.06c9.88,13.6,19.77,27.19,29.65,40.79c0,8.88,0,17.76,0,26.64"/>
	<path class="st1" d="M137.73,151.45c0-8.88,0-17.76,0-26.64c-9.83-5.4-19.66-10.79-29.49-16.19v29.25"/>
	<path class="st1" d="M137.73,180.08c0-8.88,0-17.76,0-26.64c-9.83-5.4-19.66-10.79-29.49-16.19v29.25"/>
	<path class="st1" d="M137.73,208.94c0-8.88,0-17.76,0-26.64c-9.83-5.4-19.66-10.79-29.49-16.19v29.25"/>
	<path class="st1" d="M137.73,237.57c0-8.88,0-17.76,0-26.64c-9.83-5.4-19.66-10.79-29.49-16.19v29.25"/>
	<path class="st1" d="M137.73,266.44c0-8.88,0-17.76,0-26.64c-9.83-5.4-19.66-10.79-29.49-16.19v29.25"/>
	<path class="st1" d="M137.73,295.07c0-8.88,0-17.76,0-26.64c-9.83-5.4-19.66-10.79-29.49-16.19v29.25"/>
	<path class="st1" d="M137.73,323.94c0-8.88,0-17.76,0-26.64c-9.83-5.4-19.66-10.79-29.49-16.19v29.25"/>
	<path class="st1" d="M137.73,352.56c0-8.88,0-17.76,0-26.64c-9.83-5.4-19.66-10.79-29.49-16.19v29.25"/>
	<path class="st1" d="M137.73,381.43c0-8.88,0-17.76,0-26.64c-9.83-5.4-19.66-10.79-29.49-16.19v29.25"/>
	<path class="st1" d="M137.73,410.06c0-8.88,0-17.76,0-26.64c-9.83-5.4-19.66-10.79-29.49-16.19v29.25"/>
	<path class="st1" d="M137.65,422.57c0-3.69,0-7.37,0-11.06c-9.8-5.01-19.6-10.02-29.41-15.03c-0.03,7.75-0.05,15.49-0.08,23.24"/>
	<path class="st0" d="M171.12,103.44v326h-27.88c-0.04-101.55-0.08-203.09-0.12-304.64"/>
	<path class="st0" d="M143.24,122.58c0-9.48,0-18.96,0-28.44c9.29-13.98,18.59-27.97,27.88-41.95c0,12.73,0,25.46,0,38.18"/>
	<path class="st0" d="M222.76,413.82v17.11H32.13c4.05-5.7,8.1-11.4,12.16-17.11C103.78,413.82,163.27,413.82,222.76,413.82z"/>
	<path class="st0" d="M222.76,419.83h-17.1c0.16-70.91,0.32-141.82,0.49-212.73c5.54,11.42,11.08,22.83,16.62,34.25
		C222.76,300.85,222.76,360.34,222.76,419.83z"/>
	<path class="st2" d="M234.51,92.96c-5.56-8.52-19.89-27.94-46.33-39.8c-8.41-3.77-39.53-16.42-76.42-4.32
		c-12.88,4.22-42.6,16.76-59.1,49.02c-3.39,6.64-13.69,28.69-9.61,57.2c6.61,46.21,45.33,69.76,50.84,72.99"/>
	<path class="st2" d="M94.83,141.48c-17,0-34,0-51,0c0-3.82,0-7.64,0-11.45c16.67,0,33.35,0,50.02,0
		c6.22,0.32,10.22,3.68,10.14,6.07C103.91,138.37,100.14,141.06,94.83,141.48z"/>
	<rect x="222.76" y="264.88" class="st0" width="30.04" height="1.56"/>
	<path class="st1" d="M243.17,277.13c-6.8-0.02-13.61-0.03-20.41-0.05v-1.63c5.95,0,11.9,0,17.85,0
		C241.47,276.02,242.32,276.58,243.17,277.13z"/>
	<path class="st1" d="M225.11,260.43c-0.78,0-1.56,0-2.34,0v-1.64c3.04,0,6.07,0,9.11,0c0.68,0.55,1.37,1.09,2.05,1.64
		C230.99,260.43,228.05,260.43,225.11,260.43z"/>
	<path class="st0" d="M234.6,258.79h12.22v1.64c-3.48,0-6.96,0-10.45,0C235.78,259.88,235.19,259.34,234.6,258.79z"/>
	<rect x="222.76" y="282.4" class="st0" width="45.51" height="2.51"/>
	<rect x="222.76" y="300.29" class="st0" width="53.47" height="1.86"/>
	<path class="st1" d="M248.11,311.47h-25.35v-2.21c7.06,0,14.11,0,21.17,0C245.32,310,246.72,310.73,248.11,311.47z"/>
	<path class="st0" d="M248.63,307.46l31,0v1.8c-8.63,0-17.26,0-25.89,0C252.04,308.66,250.34,308.06,248.63,307.46z"/>
	<rect x="222.76" y="316.38" class="st0" width="57.32" height="1.8"/>
	<path class="st1" d="M254.08,328.4h-31.32v-1.8c9.01,0,18.01,0,27.02,0C251.22,327.2,252.65,327.8,254.08,328.4z"/>
	<path class="st0" d="M254.45,324.84h28.75v1.75c-8.27,0-16.54,0-24.81,0C257.08,326.01,255.76,325.43,254.45,324.84z"/>
	<rect x="222.76" y="333.31" class="st0" width="59.27" height="1.8"/>
	<path class="st1" d="M248.11,345.6h-25.35v-1.8c7.19,0,14.37,0,21.56,0C245.59,344.39,246.85,344.99,248.11,345.6z"/>
	<path class="st0" d="M248.11,342.04h34.26v1.75c-9.71,0-19.43,0-29.14,0C251.52,343.21,249.82,342.62,248.11,342.04z"/>
	<rect x="222.76" y="351.88" class="st0" width="55.8" height="1.8"/>
	<path class="st1" d="M244.43,363.9h-21.67v-1.96c6.1,0,12.19,0,18.29,0C242.18,362.6,243.3,363.25,244.43,363.9z"/>
	<path class="st0" d="M244.43,360.03h33.65v1.92c-9.47,0-18.94,0-28.41,0C247.93,361.3,246.18,360.67,244.43,360.03z"/>
	<rect x="222.76" y="368.95" class="st0" width="53.46" height="1.8"/>
	<rect x="222.76" y="387.99" class="st0" width="38.64" height="1.8"/>
	<path class="st1" d="M234.8,398.72h-12.03v-1.91c2.82,0,5.65,0,8.47,0C232.42,397.45,233.61,398.08,234.8,398.72z"/>
	<path class="st0" d="M235.36,396.81h16.87v1.91c-4.26,0-8.53,0-12.79,0C238.08,398.08,236.72,397.45,235.36,396.81z"/>
	<path class="st1" d="M242.74,381.66h-19.98v-1.93c5.53,0,11.07,0,16.6,0C240.49,380.37,241.62,381.01,242.74,381.66z"/>
	<path class="st0" d="M243.2,377.83h24.97v1.9c-6.92,0-13.84,0-20.76,0C246.01,379.09,244.61,378.46,243.2,377.83z"/>
	<path class="st1" d="M244.52,295.24h-21.67v-1.8c6.17,0,12.33,0,18.5,0C242.41,294.04,243.46,294.64,244.52,295.24z"/>
	<path class="st0" d="M244.88,291.47h28.22v1.96c-8.03,0-16.06,0-24.1,0C247.63,292.78,246.26,292.13,244.88,291.47z"/>
	<path class="st0" d="M243.28,273.64h17.67v1.8c-4.8,0-9.6,0-14.4,0C245.46,274.85,244.37,274.25,243.28,273.64z"/>
	<path class="st3" d="M214.21,245.93c39.37,10.16,67.17,45.35,67.81,85.21c0.66,41.8-28.7,79.18-70.32,88.68"/>
	<text transform="matrix(1.0331 0 0 1 38.411 479.9624)" class="st0 st4 st5">csem</text>
	<g>
		<path id="SVGID_x5F_1_x5F_" class="st6" d="M62.67,218.98c-7.94-7.83-20.88-22.74-28.43-44.94c-2.74-8.07-13.94-44.11,3.79-81.63
			c25.85-54.72,90.33-64.17,97.6-65.12C198.98,19.03,243,59.73,248.4,64.89"/>
		<text>		<textPath  xlink:href="#SVGID_x5F_1_x5F_" startOffset="6.000000e-03%">
<tspan  class="st1 st4" style="font-size:28.3709px;">constructora</tspan>		</textPath>
</text>
	</g>
</g>
</svg>
